<?xml version="1.0" encoding="UTF-8"?>
<svg xmlns="http://www.w3.org/2000/svg" xmlns:xlink="http://www.w3.org/1999/xlink" width="24px" height="24px" viewBox="0 0 24 24" version="1.1">
<g id="surface1">
<path style=" stroke:none;fill-rule:nonzero;fill:rgb(0%,0%,0%);fill-opacity:1;" d="M 21.148438 1.5 L 11.851562 1.5 C 11.105469 1.5 10.5 2.105469 10.5 2.851562 L 10.5 10.5 L 2.851562 10.5 C 2.105469 10.5 1.5 11.105469 1.5 11.851562 L 1.5 21.148438 C 1.5 21.894531 2.105469 22.5 2.851562 22.5 L 20.648438 22.5 C 21.667969 22.5 22.5 21.671875 22.5 20.648438 L 22.5 2.851562 C 22.5 2.105469 21.894531 1.5 21.148438 1.5 Z M 21.300781 20.648438 C 21.300781 21.007812 21.007812 21.300781 20.648438 21.300781 L 2.851562 21.300781 C 2.765625 21.300781 2.699219 21.234375 2.699219 21.148438 L 2.699219 11.851562 C 2.699219 11.765625 2.765625 11.699219 2.851562 11.699219 L 11.101562 11.699219 C 11.429688 11.699219 11.699219 11.429688 11.699219 11.101562 L 11.699219 2.851562 C 11.699219 2.765625 11.765625 2.699219 11.851562 2.699219 L 21.148438 2.699219 C 21.234375 2.699219 21.300781 2.765625 21.300781 2.851562 Z M 21.300781 20.648438 "/>
<path style=" stroke:none;fill-rule:nonzero;fill:rgb(0%,0%,0%);fill-opacity:1;" d="M 16.5 7.199219 C 16.167969 7.199219 15.898438 7.46875 15.898438 7.800781 L 15.898438 16.050781 L 8.128906 16.050781 L 9.152344 15.027344 C 9.308594 14.878906 9.371094 14.652344 9.316406 14.445312 C 9.261719 14.234375 9.097656 14.070312 8.886719 14.015625 C 8.679688 13.960938 8.453125 14.023438 8.304688 14.179688 L 6.257812 16.226562 C 6.230469 16.253906 6.203125 16.285156 6.183594 16.316406 C 6.171875 16.332031 6.167969 16.347656 6.15625 16.363281 C 6.148438 16.382812 6.136719 16.402344 6.128906 16.421875 C 6.121094 16.441406 6.113281 16.460938 6.109375 16.480469 C 6.105469 16.5 6.097656 16.515625 6.09375 16.53125 C 6.078125 16.609375 6.078125 16.691406 6.09375 16.769531 C 6.097656 16.785156 6.105469 16.800781 6.109375 16.820312 C 6.113281 16.839844 6.121094 16.859375 6.128906 16.878906 C 6.136719 16.898438 6.148438 16.917969 6.15625 16.9375 C 6.167969 16.953125 6.171875 16.96875 6.183594 16.984375 C 6.203125 17.015625 6.230469 17.046875 6.257812 17.074219 L 8.304688 19.121094 C 8.421875 19.238281 8.574219 19.296875 8.726562 19.296875 C 8.882812 19.296875 9.035156 19.238281 9.152344 19.121094 C 9.386719 18.886719 9.386719 18.507812 9.152344 18.273438 L 8.128906 17.25 L 16.5 17.25 C 16.832031 17.25 17.101562 16.980469 17.101562 16.648438 L 17.101562 7.800781 C 17.101562 7.46875 16.832031 7.199219 16.5 7.199219 Z M 16.5 7.199219 "/>
</g>
</svg>
