<?xml version="1.0" encoding="UTF-8"?>
<svg xmlns="http://www.w3.org/2000/svg" xmlns:xlink="http://www.w3.org/1999/xlink" width="24px" height="24px" viewBox="0 0 24 24" version="1.1">
<g id="surface1">
<path style=" stroke:none;fill-rule:nonzero;fill:rgb(0%,0%,0%);fill-opacity:1;" d="M 12 18 C 10.910156 17.957031 9.886719 17.734375 8.933594 17.363281 L 9.539062 15.988281 C 10.191406 16.292969 10.957031 16.46875 11.761719 16.46875 C 12.253906 16.46875 12.726562 16.402344 13.175781 16.28125 C 13.359375 16.117188 13.5 15.851562 13.5 15.554688 C 13.605469 14.910156 13.171875 14.625 11.746094 14.054688 C 10.5 13.621094 8.683594 12.914062 9 10.933594 C 9.109375 10.042969 9.691406 9.3125 10.484375 8.992188 C 10.816406 8.910156 11.183594 8.871094 11.554688 8.871094 C 12.640625 8.871094 13.644531 9.222656 14.457031 9.820312 L 13.601562 10.949219 C 13.054688 10.578125 12.378906 10.355469 11.652344 10.355469 C 11.464844 10.355469 11.285156 10.371094 11.109375 10.398438 C 10.785156 10.523438 10.542969 10.84375 10.527344 11.21875 C 10.410156 11.820312 10.738281 12.089844 12.253906 12.71875 C 13.527344 13.214844 15.253906 13.875 14.953125 15.839844 C 14.851562 16.605469 14.40625 17.25 13.78125 17.617188 C 13.296875 17.863281 12.738281 18.003906 12.144531 18.003906 C 12.09375 18.003906 12.042969 18 11.992188 18 Z M 12 18 "/>
<path style=" stroke:none;fill-rule:nonzero;fill:rgb(0%,0%,0%);fill-opacity:1;" d="M 20.566406 18 C 20.523438 18 20.476562 18 20.429688 18 C 19.558594 18 18.746094 17.730469 18.078125 17.269531 C 17.109375 16.449219 16.488281 15.214844 16.488281 13.835938 C 16.488281 13.71875 16.492188 13.601562 16.5 13.484375 C 16.484375 13.363281 16.476562 13.210938 16.476562 13.050781 C 16.476562 11.703125 17.097656 10.5 18.066406 9.710938 C 18.816406 9.285156 19.703125 9.039062 20.648438 9.039062 C 21.3125 9.039062 21.949219 9.160156 22.535156 9.386719 L 21.976562 10.769531 C 21.5625 10.601562 21.082031 10.503906 20.578125 10.503906 C 19.996094 10.503906 19.445312 10.636719 18.949219 10.867188 C 18.359375 11.410156 17.972656 12.207031 17.972656 13.09375 C 17.972656 13.238281 17.984375 13.378906 18 13.511719 C 17.988281 13.609375 17.976562 13.734375 17.976562 13.863281 C 17.976562 14.761719 18.359375 15.570312 18.972656 16.136719 C 19.492188 16.402344 20.101562 16.554688 20.75 16.554688 C 21.1875 16.554688 21.609375 16.484375 22.003906 16.355469 L 22.5 17.710938 C 21.925781 17.894531 21.265625 17.996094 20.578125 17.996094 C 20.574219 17.996094 20.566406 17.996094 20.5625 17.996094 Z M 20.566406 18 "/>
<path style=" stroke:none;fill-rule:nonzero;fill:rgb(0%,0%,0%);fill-opacity:1;" d="M 7.5 6 L 7.5 4.5 L 1.5 4.5 L 1.5 18 L 7.5 18 L 7.5 16.5 L 3 16.5 L 3 12 L 7.5 12 L 7.5 10.5 L 3 10.5 L 3 6 Z M 7.5 6 "/>
</g>
</svg>
